<svg width="112" height="16" viewBox="0 0 112 16" fill="none" xmlns="http://www.w3.org/2000/svg">
<path d="M26.582 3.14231L30.7838 13.2849C30.2272 13.4101 29.6568 13.4658 29.0864 13.4797C28.7664 13.4797 28.4325 13.4519 28.1125 13.3962L27.3055 11.3649H23.1038L22.2968 13.3962C21.8933 13.438 21.5038 13.4658 21.1003 13.4658C20.6272 13.4797 20.1542 13.4241 19.709 13.2849L23.9386 3.14231C24.3838 3.07275 24.8429 3.04492 25.302 3.04492C25.7194 3.04492 26.1507 3.07275 26.582 3.14231ZM23.9246 9.38927H26.4986L25.5525 7.02405L25.2046 6.03622L24.8846 7.02405L23.9246 9.38927Z" fill="white"/>
<path d="M40.4393 3.05891C40.8846 3.05891 41.3298 3.08673 41.775 3.1563V13.3406C40.9402 13.4798 40.0915 13.5215 39.2567 13.4659L34.888 7.65022L34.5124 7.03804L34.582 7.77543V13.3963C34.1507 13.452 33.7054 13.4937 33.2602 13.4937C32.8289 13.4937 32.3976 13.452 31.9663 13.3963V3.23978C32.3698 3.12847 32.7733 3.07282 33.1767 3.05891C33.608 3.03109 34.0533 3.045 34.4846 3.08673L38.8393 9.04152L39.2289 9.66761L39.1594 8.84673V3.1563C39.5907 3.10065 40.022 3.07282 40.4393 3.05891Z" fill="white"/>
<path d="M49.4412 13.6883C48.6343 13.7023 47.8412 13.5631 47.076 13.2988C46.3804 13.0623 45.7404 12.6727 45.1838 12.1857C44.6412 11.6988 44.2238 11.1144 43.9456 10.4466C43.3612 9.04139 43.3612 7.46922 43.9456 6.064C44.2238 5.39617 44.6551 4.81182 45.1838 4.32487C45.7404 3.824 46.3804 3.44835 47.076 3.19792C47.8273 2.93357 48.6343 2.79443 49.4412 2.79443C50.2482 2.79443 51.0551 2.91965 51.8065 3.184C52.5021 3.42052 53.156 3.79618 53.6986 4.29704C54.2273 4.784 54.6447 5.36834 54.9369 6.03617C55.2291 6.73182 55.3821 7.48313 55.3821 8.24835C55.3821 8.98574 55.243 9.72313 54.9369 10.4188C54.6586 11.0866 54.2273 11.671 53.6986 12.1579C53.1421 12.6588 52.5021 13.0344 51.7925 13.2849C51.0412 13.5631 50.2482 13.6883 49.4412 13.6883ZM49.4412 11.4344C50.276 11.4762 51.083 11.1562 51.6812 10.5579C52.2656 9.93182 52.5717 9.09704 52.5299 8.24835C52.5717 7.38574 52.2656 6.55096 51.6812 5.91096C50.4152 4.75618 48.4673 4.75618 47.2012 5.91096C46.6169 6.53705 46.3108 7.38574 46.3525 8.24835C46.3108 9.09704 46.6169 9.93182 47.2012 10.5579C47.7856 11.1562 48.6065 11.4762 49.4412 11.4344Z" fill="white"/>
<path d="M63.7298 9.34727L66.3733 13.2986C65.6359 13.4516 64.8985 13.5073 64.1472 13.4934L63.4793 13.4794L61.1559 9.88988H61.0307L59.7367 9.87597V13.4238C59.3054 13.4934 58.8741 13.5212 58.4289 13.5212C57.9837 13.5212 57.5385 13.4934 57.0933 13.4238V3.30901C57.608 3.21162 58.2341 3.12814 58.9437 3.07249C59.6533 3.01683 60.3072 2.9751 60.9054 2.9751C61.5176 2.9751 62.1159 3.03075 62.7141 3.12814C63.2567 3.21162 63.7854 3.39249 64.2724 3.65684C65.2185 4.17162 65.7889 5.18727 65.7333 6.25858C65.7333 6.63423 65.6637 7.00988 65.5524 7.37162C65.4272 7.78901 65.1906 8.17857 64.8846 8.49857C64.5646 8.8464 64.175 9.13858 63.7298 9.34727ZM59.7367 5.03423V7.8864L61.128 7.90031C61.6428 7.94205 62.1576 7.78901 62.575 7.48292C62.8811 7.21858 63.062 6.8151 63.048 6.41162C63.062 6.00814 62.8811 5.61857 62.5611 5.36814C62.1298 5.08988 61.6289 4.95075 61.1141 4.97858C60.655 4.97858 60.1959 4.99249 59.7367 5.03423Z" fill="white"/>
<path d="M74.4844 8.16491C74.9018 8.29013 75.2914 8.49882 75.6253 8.77708C75.9174 8.99969 76.1401 9.30577 76.2653 9.6536C76.7105 10.8362 76.2931 12.1719 75.2357 12.8675C74.4288 13.4101 73.1905 13.6884 71.5209 13.6884C70.2688 13.7023 69.0166 13.6049 67.7783 13.3962V3.30926C68.9888 3.08665 70.2131 2.98926 71.4514 2.98926C74.4427 2.98926 75.9453 3.96317 75.9453 5.92491C75.9453 7.02404 75.4583 7.76143 74.4844 8.16491ZM71.6461 4.92317C71.2705 4.92317 70.8531 4.93708 70.4079 4.96491V7.27447H71.7435C72.1748 7.31621 72.6061 7.20491 72.9818 6.96838C73.2461 6.74578 73.3992 6.39795 73.3714 6.05013C73.3853 5.71621 73.2183 5.39621 72.9261 5.21534C72.5366 4.99274 72.0914 4.89534 71.6461 4.92317ZM71.7853 11.7684C73.107 11.7684 73.7748 11.3232 73.7748 10.4327C73.7888 10.0571 73.6079 9.69535 73.2879 9.48665C72.8705 9.23622 72.3696 9.12491 71.8827 9.15273H70.4079V11.7266C70.8531 11.7545 71.3122 11.7684 71.7853 11.7684Z" fill="white"/>
<path d="M83.6533 3.14231L87.8551 13.2849C87.2985 13.4101 86.7281 13.4658 86.1577 13.4797C85.8377 13.4797 85.5038 13.4519 85.1838 13.3962L84.3768 11.3649H80.1751L79.3681 13.3962C78.9646 13.438 78.5751 13.4658 78.1716 13.4658C77.6985 13.4797 77.2255 13.4241 76.7803 13.2849L81.0098 3.14231C81.4551 3.07275 81.9142 3.04492 82.3733 3.04492C82.8046 3.04492 83.2359 3.07275 83.6533 3.14231ZM80.9959 9.38927H83.5698L82.6237 7.02405L82.2759 6.03622L81.9559 7.02405L80.9959 9.38927Z" fill="white"/>
<path d="M97.5106 3.05866C97.9559 3.05866 98.4011 3.08649 98.8463 3.15605V13.3404C98.0115 13.4795 97.1628 13.5213 96.328 13.4656L91.9593 7.63605L91.5837 7.02388L91.6532 7.76127V13.3821C91.2219 13.4378 90.7767 13.4795 90.3315 13.4795C89.9002 13.4795 89.4689 13.4378 89.0376 13.3821V3.22562C89.4411 3.11431 89.8446 3.05866 90.248 3.04475C90.6793 3.01692 91.1246 3.03084 91.5559 3.07257L95.9106 9.02736L96.3002 9.65344L96.2306 8.83258V3.14214C96.6619 3.1004 97.0932 3.07258 97.5106 3.05866Z" fill="white"/>
<path d="M106.666 7.94208L111.479 13.3125C110.826 13.4099 110.158 13.4516 109.49 13.4377L108.099 13.4099L104.62 9.48643L103.827 10.0151V13.4238C103.396 13.4934 102.965 13.5212 102.519 13.5212C102.074 13.5212 101.629 13.4934 101.198 13.4238V3.18382C101.615 3.11425 102.046 3.08643 102.464 3.08643C102.923 3.08643 103.368 3.11425 103.827 3.18382V7.34382C104.606 6.7873 105.316 6.1473 105.984 5.46556C106.652 4.74208 107.264 3.96295 107.82 3.15599C108.238 3.12816 108.669 3.11425 109.142 3.11425C109.726 3.11425 110.325 3.14208 110.909 3.21164C109.726 4.95077 108.307 6.55077 106.666 7.94208Z" fill="white"/>
<path d="M9.93992 8.06798V9.83494H8.17296C7.19905 9.83494 6.39209 9.04189 6.39209 8.06798C6.39209 7.09406 7.18513 6.28711 8.15905 6.28711C9.13296 6.28711 9.93992 7.08015 9.93992 8.06798Z" fill="white"/>
<path d="M11.2281 0.0556641H5.1342C2.39333 0.0556641 0.181152 2.28175 0.181152 5.00871V11.1165C0.181152 13.8574 2.39333 16.0696 5.1342 16.0696H16.1812V5.00871C16.1672 2.28175 13.9551 0.0556641 11.2281 0.0556641ZM12.6612 12.5635H8.18115C5.70463 12.5635 3.70115 10.5461 3.70115 8.05567C3.70115 6.16349 4.89767 4.48001 6.67854 3.84001V2.50436C6.67854 2.44871 6.72028 2.39306 6.78985 2.39306C6.81767 2.39306 6.8455 2.40697 6.85941 2.42088L7.58289 3.15828C7.62463 3.20001 7.6942 3.20001 7.73594 3.15828L7.74985 3.14436L8.1255 2.65741C8.15333 2.61567 8.22289 2.60175 8.27854 2.62958C8.29246 2.62958 8.29246 2.64349 8.30637 2.65741L8.68202 3.14436C8.70985 3.1861 8.77941 3.20001 8.82115 3.17219C8.82115 3.17219 8.83506 3.17219 8.83506 3.15828L9.55854 2.42088C9.60028 2.37914 9.66985 2.37914 9.71159 2.42088C9.7255 2.43479 9.73941 2.46262 9.73941 2.49045V3.84001C11.5203 4.48001 12.7029 6.1774 12.7029 8.06958L12.6612 12.5635Z" fill="white"/>
</svg>
