<svg width="19" height="18" viewBox="0 0 19 18" fill="none" xmlns="http://www.w3.org/2000/svg">
  <path d="M7.5 15.875C7.5 16.1222 7.42669 16.3639 7.28934 16.5695C7.15199 16.775 6.95676 16.9352 6.72835 17.0299C6.49995 17.1245 6.24861 17.1492 6.00614 17.101C5.76366 17.0527 5.54093 16.9337 5.36612 16.7589C5.1913 16.5841 5.07225 16.3613 5.02402 16.1189C4.97579 15.8764 5.00054 15.6251 5.09515 15.3966C5.18976 15.1682 5.34998 14.973 5.55554 14.8357C5.7611 14.6983 6.00277 14.625 6.25 14.625C6.58152 14.625 6.89946 14.7567 7.13388 14.9911C7.3683 15.2255 7.5 15.5435 7.5 15.875ZM14.375 14.625C14.1278 14.625 13.8861 14.6983 13.6805 14.8357C13.475 14.973 13.3148 15.1682 13.2201 15.3966C13.1255 15.6251 13.1008 15.8764 13.149 16.1189C13.1972 16.3613 13.3163 16.5841 13.4911 16.7589C13.6659 16.9337 13.8887 17.0527 14.1311 17.101C14.3736 17.1492 14.6249 17.1245 14.8534 17.0299C15.0818 16.9352 15.277 16.775 15.4143 16.5695C15.5517 16.3639 15.625 16.1222 15.625 15.875C15.625 15.5435 15.4933 15.2255 15.2589 14.9911C15.0245 14.7567 14.7065 14.625 14.375 14.625ZM18.0977 4.80859L15.8687 12.0516C15.752 12.4355 15.5146 12.7716 15.1918 13.01C14.8689 13.2484 14.4779 13.3764 14.0766 13.375H6.56797C6.16092 13.3735 5.76531 13.2401 5.4404 12.9949C5.11548 12.7497 4.87874 12.4059 4.76562 12.0148L1.93906 2.125H0.625C0.45924 2.125 0.300269 2.05915 0.183058 1.94194C0.065848 1.82473 0 1.66576 0 1.5C0 1.33424 0.065848 1.17527 0.183058 1.05806C0.300269 0.940848 0.45924 0.875 0.625 0.875H1.93906C2.21048 0.8759 2.4743 0.964678 2.69104 1.12805C2.90778 1.29141 3.06579 1.52058 3.14141 1.78125L3.775 4H17.5C17.5978 3.99996 17.6943 4.02288 17.7816 4.06691C17.8689 4.11094 17.9447 4.17485 18.0028 4.25351C18.061 4.33216 18.0998 4.42336 18.1163 4.51977C18.1328 4.61618 18.1264 4.7151 18.0977 4.80859ZM16.6539 5.25H4.13203L5.96719 11.6719C6.00452 11.8024 6.08335 11.9172 6.19174 11.999C6.30014 12.0807 6.4322 12.125 6.56797 12.125H14.0766C14.2103 12.125 14.3405 12.0822 14.4481 12.0027C14.5557 11.9233 14.6349 11.8114 14.6742 11.6836L16.6539 5.25Z" fill="#161616"/>
</svg>
