<svg width="40" height="40" viewBox="0 0 40 40" fill="none" xmlns="http://www.w3.org/2000/svg">
<path d="M30.6625 29.3375C30.8381 29.5133 30.9367 29.7516 30.9367 30C30.9367 30.2484 30.8381 30.4867 30.6625 30.6625C30.4984 30.8266 26.5625 34.6875 20 34.6875C13.8031 34.6875 9.43906 30.6641 7.1875 27.9281V32.5C7.1875 32.7486 7.08873 32.9871 6.91291 33.1629C6.7371 33.3387 6.49864 33.4375 6.25 33.4375C6.00136 33.4375 5.7629 33.3387 5.58709 33.1629C5.41127 32.9871 5.3125 32.7486 5.3125 32.5V25C5.3125 24.7514 5.41127 24.5129 5.58709 24.3371C5.7629 24.1613 6.00136 24.0625 6.25 24.0625H13.75C13.9986 24.0625 14.2371 24.1613 14.4129 24.3371C14.5887 24.5129 14.6875 24.7514 14.6875 25C14.6875 25.2486 14.5887 25.4871 14.4129 25.6629C14.2371 25.8387 13.9986 25.9375 13.75 25.9375H8.02344C9.80625 28.2984 13.9969 32.8125 20 32.8125C25.7953 32.8125 29.3031 29.375 29.3375 29.3375C29.5133 29.1619 29.7516 29.0633 30 29.0633C30.2484 29.0633 30.4867 29.1619 30.6625 29.3375ZM33.75 6.5625C33.5014 6.5625 33.2629 6.66127 33.0871 6.83709C32.9113 7.0129 32.8125 7.25136 32.8125 7.5V12.0719C30.5609 9.33594 26.1969 5.3125 20 5.3125C13.4375 5.3125 9.50156 9.17344 9.3375 9.3375C9.1719 9.51522 9.08175 9.75028 9.08603 9.99315C9.09032 10.236 9.18871 10.4678 9.36047 10.6395C9.53224 10.8113 9.76397 10.9097 10.0068 10.914C10.2497 10.9183 10.4848 10.8281 10.6625 10.6625C10.6969 10.625 14.2047 7.1875 20 7.1875C26.0031 7.1875 30.1937 11.7016 31.9766 14.0625H26.25C26.0014 14.0625 25.7629 14.1613 25.5871 14.3371C25.4113 14.5129 25.3125 14.7514 25.3125 15C25.3125 15.2486 25.4113 15.4871 25.5871 15.6629C25.7629 15.8387 26.0014 15.9375 26.25 15.9375H33.75C33.9986 15.9375 34.2371 15.8387 34.4129 15.6629C34.5887 15.4871 34.6875 15.2486 34.6875 15V7.5C34.6875 7.25136 34.5887 7.0129 34.4129 6.83709C34.2371 6.66127 33.9986 6.5625 33.75 6.5625Z" fill="white"/>
</svg>
