<svg width="40" height="40" viewBox="0 0 40 40" fill="none" xmlns="http://www.w3.org/2000/svg">
<path d="M35.3946 3.1875C34.9492 2.98437 34.427 3.0625 34.0661 3.39063L30.5952 6.51562L27.1166 3.35938C26.6482 2.92969 25.9341 2.92969 25.4657 3.35938L21.9948 6.51562L18.5162 3.35938C18.0478 2.92969 17.3337 2.92969 16.8653 3.35938L13.3944 6.52344L9.92346 3.39844C9.55487 3.07031 9.04038 2.99219 8.595 3.19531C8.14962 3.39844 7.8655 3.85156 7.8655 4.34375V26.7969H3.64208C2.95865 26.7969 2.40576 27.3594 2.40576 28.0547V31.125C2.40576 34.3672 4.9475 37.0234 8.11123 37.1328C8.18034 37.1328 8.24944 37.1406 8.31856 37.1406H30.2113C33.4671 37.1406 36.124 34.4453 36.124 31.125V4.33594C36.124 3.84375 35.8399 3.39062 35.3946 3.1875ZM8.09586 34.9688C6.12238 34.9688 4.5098 33.1719 4.5098 30.9688V28.8984H24.7976V30.9688C24.7976 32.4609 25.2199 33.8359 25.9495 34.9688H8.09586ZM33.9663 31.1875C33.9663 33.1641 32.3844 34.7734 30.4417 34.7734C28.4989 34.7734 26.9169 33.1641 26.9169 31.1875V28.0312C26.9169 27.3125 26.3487 26.7344 25.6423 26.7344H10.0156V6.53906L12.3116 8.60938C12.7954 9.04687 13.5248 9.04688 14.0009 8.60156L17.5717 5.35938L21.1424 8.60156C21.6262 9.03906 22.3557 9.03906 22.8395 8.60156L26.4102 5.35156L29.9808 8.60156C30.4646 9.03906 31.1942 9.03906 31.6703 8.60938L33.9663 6.53906V31.1875Z" fill="white"/>
<path d="M8.31036 37.1328H8.10303V37.125C8.17214 37.1328 8.24125 37.1328 8.31036 37.1328Z" fill="white"/>
<path d="M15.1146 22.5234H28.9137C29.4974 22.5234 29.9658 22.039 29.9658 21.4531C29.9658 20.8593 29.4897 20.3828 28.9137 20.3828H15.1146C14.531 20.3828 14.0626 20.8671 14.0626 21.4531C14.0549 22.0468 14.531 22.5234 15.1146 22.5234Z" fill="white"/>
<path d="M15.1146 16.5312H24.4983C25.0819 16.5312 25.5503 16.0468 25.5503 15.4609C25.5503 14.8671 25.0743 14.3906 24.4983 14.3906H15.1146C14.531 14.3906 14.0626 14.8749 14.0626 15.4609C14.0549 16.0468 14.531 16.5312 15.1146 16.5312Z" fill="white"/>
</svg>
