<svg width="68" height="30" viewBox="0 0 68 30" fill="none" xmlns="http://www.w3.org/2000/svg">
<g clip-path="url(#clip0_109_1171)">
<mask id="mask0_109_1171" style="mask-type:luminance" maskUnits="userSpaceOnUse" x="-10" y="-29" width="87" height="87">
<path d="M-9.12402 -28.3804H76.9791V57.7227H-9.12402V-28.3804Z" fill="white"/>
</mask>
<g mask="url(#mask0_109_1171)">
<path d="M35.708 20.4731C35.1365 20.4731 34.6091 20.3852 34.1255 20.2094C33.6421 20.0335 33.2465 19.7699 32.8948 19.4622C32.5431 19.1105 32.2794 18.7149 32.0596 18.1874C31.8838 17.66 31.752 17.0886 31.752 16.3852V16.0775C31.752 15.4183 31.8398 14.8907 32.0596 14.3633C32.2794 13.8797 32.5431 13.4841 32.8948 13.1325C33.2465 12.7809 33.686 12.5611 34.1255 12.3853C34.6091 12.2094 35.0926 12.1215 35.6201 12.1215C36.1914 12.1215 36.6751 12.2094 37.1146 12.3413C37.5541 12.4731 37.9058 12.6929 38.2135 12.9567C38.5212 13.2204 38.741 13.5281 38.9168 13.8797C39.0926 14.2314 39.1805 14.627 39.2684 15.0227H37.2464C37.1146 14.671 36.9388 14.3633 36.719 14.1435C36.4992 13.9237 36.1476 13.8358 35.664 13.8358C35.4003 13.8358 35.1805 13.8797 34.9168 13.9677C34.697 14.0556 34.4772 14.1875 34.3013 14.3633C34.1255 14.5391 33.9937 14.8029 33.9058 15.0666C33.8179 15.3303 33.7739 15.6819 33.7739 16.0775V16.3852C33.7739 16.8248 33.8179 17.1764 33.9058 17.4842C33.9937 17.7918 34.1255 18.0556 34.3013 18.2314C34.4772 18.4072 34.6531 18.583 34.9168 18.671C35.1365 18.7589 35.4003 18.8028 35.664 18.8028C36.0596 18.8028 36.4112 18.7149 36.6751 18.4951C36.9388 18.2754 37.1585 18.0116 37.2464 17.616H39.2684C39.2244 18.0556 39.0926 18.4512 38.9168 18.8028C38.741 19.1545 38.4772 19.4622 38.1695 19.7259C37.8618 19.9897 37.5102 20.1655 37.0707 20.2974C36.719 20.4291 36.2355 20.4731 35.708 20.4731Z" fill="white"/>
<path d="M43.4001 20.3853C42.9165 20.3853 42.521 20.3412 42.2132 20.2534C41.8616 20.1655 41.5979 20.0336 41.3781 19.8138C41.1583 19.594 40.9825 19.3303 40.8946 18.9347C40.8067 18.5831 40.7627 18.1435 40.7627 17.5721V9.74786H42.7407V17.3523C42.7407 17.616 42.7407 17.8357 42.7847 17.9677C42.8286 18.1435 42.8726 18.2753 42.9605 18.3633C43.0484 18.4511 43.1363 18.5391 43.3121 18.5831C43.444 18.627 43.6199 18.6709 43.8396 18.6709H44.1473C44.2353 18.6709 44.3231 18.6709 44.3671 18.627V20.2973C44.3231 20.2973 44.2353 20.2973 44.1473 20.3412C44.0594 20.3412 43.9715 20.3412 43.9275 20.3853H43.6638H43.4001Z" fill="white"/>
<path d="M46.8289 11.4622C46.4772 11.4622 46.1695 11.3742 45.9498 11.1545C45.73 10.9347 45.6421 10.671 45.6421 10.3632C45.6421 10.0556 45.73 9.79183 45.9498 9.57203C46.1695 9.35231 46.4772 9.26437 46.8289 9.26437C47.1805 9.26437 47.4883 9.35231 47.708 9.57203C47.9277 9.79183 48.0157 10.0556 48.0157 10.3632C48.0157 10.671 47.9277 10.9347 47.708 11.1545C47.4883 11.3742 47.1805 11.4622 46.8289 11.4622ZM45.8179 12.2973H47.7959V20.2974H45.8179V12.2973Z" fill="white"/>
<path d="M53.2905 20.4731C52.719 20.4731 52.1916 20.3852 51.708 20.2094C51.2246 20.0335 50.829 19.7699 50.4773 19.4622C50.1257 19.1105 49.8619 18.7149 49.6421 18.1874C49.4663 17.66 49.3345 17.0886 49.3345 16.3852V16.0775C49.3345 15.4183 49.4223 14.8907 49.6421 14.3633C49.8619 13.8797 50.1257 13.4841 50.4773 13.1325C50.829 12.7809 51.2685 12.5611 51.708 12.3853C52.1916 12.2094 52.6751 12.1215 53.2026 12.1215C53.774 12.1215 54.2575 12.2094 54.6971 12.3413C55.1366 12.4731 55.4883 12.6929 55.796 12.9567C56.1037 13.2204 56.3235 13.5281 56.4993 13.8797C56.6751 14.2314 56.763 14.627 56.8509 15.0227H54.829C54.6971 14.671 54.5213 14.3633 54.3015 14.1435C54.0817 13.9237 53.7301 13.8358 53.2465 13.8358C52.9829 13.8358 52.7631 13.8797 52.4992 13.9677C52.2795 14.0556 52.0597 14.1875 51.8838 14.3633C51.708 14.5391 51.5762 14.8029 51.4883 15.0666C51.4004 15.3303 51.3564 15.6819 51.3564 16.0775V16.3852C51.3564 16.8248 51.4004 17.1764 51.4883 17.4842C51.5762 17.7918 51.708 18.0556 51.8838 18.2314C52.0597 18.4072 52.2356 18.583 52.4992 18.671C52.719 18.7589 52.9829 18.8028 53.2465 18.8028C53.6421 18.8028 53.9938 18.7149 54.2575 18.4951C54.5213 18.2754 54.741 18.0116 54.829 17.616H56.8509C56.8069 18.0556 56.6751 18.4512 56.4993 18.8028C56.3235 19.1545 56.0597 19.4622 55.752 19.7259C55.4444 19.9897 55.0926 20.1655 54.6532 20.2974C54.3015 20.4291 53.818 20.4731 53.2905 20.4731Z" fill="white"/>
<path d="M58.2573 20.2974V9.7479H60.2792V15.5941L63.1803 12.2973H65.5101L62.521 15.6819L65.8177 20.2974H63.4442L61.1584 17.0446L60.2792 18.0116V20.2974H58.2573Z" fill="white"/>
</g>
<path d="M6.43316 6.18772C3.48812 9.08876 2.0376 11.858 2.0376 14.6272V14.6712C2.0376 17.4404 3.48812 20.2536 6.43316 23.1547C9.33427 26.0558 12.1475 27.5063 14.9167 27.5503H14.9606C17.7298 27.5503 20.5431 26.0997 23.4442 23.1547C29.2462 17.3525 29.2903 12.0339 23.4442 6.14371C20.4991 3.24268 17.686 1.79208 14.9167 1.79208C12.1035 1.79208 9.33427 3.24268 6.43316 6.18772ZM10.2573 19.2865C7.04856 16.0778 7.09248 13.1767 10.2573 10.0119C13.4222 6.84705 16.3233 6.80312 19.5321 10.0119C22.7408 13.2207 22.6969 16.1217 19.5321 19.2865C17.9496 20.8689 16.4111 21.6602 14.9167 21.6602C14.8764 21.6614 14.8358 21.662 14.7954 21.662C13.2995 21.662 11.8411 20.8703 10.2573 19.2865Z" fill="url(#paint0_linear_109_1171)"/>
</g>
<defs>
<linearGradient id="paint0_linear_109_1171" x1="6.33242" y1="23.6929" x2="22.7482" y2="6.47734" gradientUnits="userSpaceOnUse">
<stop stop-color="#0078FF"/>
<stop offset="1" stop-color="#00DEFF"/>
</linearGradient>
<clipPath id="clip0_109_1171">
<rect width="67.0886" height="29" fill="white" transform="translate(0.622559 0.5)"/>
</clipPath>
</defs>
</svg>
