<svg width="40" height="40" viewBox="0 0 40 40" fill="none" xmlns="http://www.w3.org/2000/svg">
<path d="M29.8548 24.5001C27.0213 24.3126 24.6716 26.7032 24.8559 29.5861C25.0094 31.9689 26.8984 33.8907 29.2406 34.047C32.0741 34.2267 34.4162 31.8439 34.2395 28.9611C34.0936 26.5782 32.197 24.6486 29.8548 24.5001ZM29.7167 31.8986C28.1578 32.0001 26.8601 30.6876 26.9599 29.0939C27.0444 27.7814 28.0887 26.7189 29.3787 26.6329C30.9376 26.5314 32.2353 27.8439 32.1355 29.4376C32.051 30.7501 31.0067 31.8126 29.7167 31.8986Z" fill="white"/>
<path d="M13.7984 24.5001C10.9649 24.3126 8.6228 26.7032 8.79942 29.5861C8.94531 31.9689 10.842 33.8907 13.1841 34.047C16.0176 34.2345 18.3597 31.8439 18.183 28.9611C18.0295 26.5782 16.1405 24.6486 13.7984 24.5001ZM13.6602 31.8986C12.1014 32.0001 10.8113 30.6876 10.9035 29.1017C10.9879 27.7892 12.0323 26.7267 13.3146 26.6407C14.8735 26.5392 16.1713 27.8517 16.0714 29.4454C15.9946 30.7501 14.9425 31.8126 13.6602 31.8986Z" fill="white"/>
<path d="M17.646 30.3862H25.7472V28.2378H17.646V30.3862Z" fill="white"/>
<path d="M38.3572 21.5859V28.0391C38.3572 29.3359 37.3283 30.3828 36.0535 30.3828H33.6423V28.2344H35.5237C35.923 28.2344 36.2378 27.9063 36.2378 27.5078V21.8438C35.6849 21.1094 35.1321 20.3672 34.5792 19.6328H25.4796C24.896 19.6328 24.4276 19.1484 24.4276 18.5625V8.36719H6.68923C6.10563 8.36719 5.63721 7.88281 5.63721 7.29688C5.63721 6.70313 6.11331 6.22656 6.68923 6.22656H25.4796C26.0633 6.22656 26.5317 6.71094 26.5317 7.29688V16.8047C26.5317 17.1875 26.8312 17.4922 27.2074 17.4922H35.8846L36.2072 18.1406C36.2301 18.1875 36.2609 18.2344 36.2916 18.2734C36.9136 19.1719 37.5356 20.0625 38.1652 20.9609C38.2881 21.1484 38.3572 21.3594 38.3572 21.5859Z" fill="white"/>
<path d="M5.75954 28.2344H9.09221C9.67581 28.2344 10.1442 28.7188 10.1442 29.3047C10.1442 29.8984 9.66813 30.375 9.09221 30.375H5.75954C5.17594 30.375 4.70752 29.8906 4.70752 29.3047C4.70752 28.7188 5.17594 28.2344 5.75954 28.2344Z" fill="white"/>
<path d="M4.36119 21.2422H10.0052C10.5888 21.2422 11.0572 21.7266 11.0572 22.3125C11.0572 22.9062 10.5811 23.3828 10.0052 23.3828H4.36119C3.77759 23.3828 3.30917 22.8984 3.30917 22.3125C3.30149 21.7188 3.77759 21.2422 4.36119 21.2422Z" fill="white"/>
<path d="M2.38805 16.5078H13.0234C13.607 16.5078 14.0754 16.9922 14.0754 17.5781C14.0754 18.1719 13.5993 18.6485 13.0234 18.6485H2.38805C1.80445 18.6485 1.33603 18.1641 1.33603 17.5781C1.32836 16.9844 1.80445 16.5078 2.38805 16.5078Z" fill="white"/>
<path d="M4.40758 11.8359H14.5822C15.1657 11.8359 15.6343 12.3203 15.6343 12.9062C15.6343 13.5 15.1582 13.9766 14.5822 13.9766H4.40758C3.82398 13.9766 3.35556 13.4922 3.35556 12.9062C3.34789 12.3125 3.82398 11.8359 4.40758 11.8359Z" fill="white"/>
<path d="M35.8832 17.4844H33.5181L30.938 12.2812H26.5303V10.1328H31.391C31.9056 10.1328 32.374 10.4297 32.612 10.8984L33.3031 12.2812" fill="white"/>
</svg>
