<svg width="16" height="16" viewBox="0 0 16 16" fill="none" xmlns="http://www.w3.org/2000/svg">
  <path d="M10.0672 8.44219L6.94219 11.5672C6.88412 11.6253 6.81518 11.6713 6.73931 11.7027C6.66344 11.7342 6.58212 11.7503 6.5 11.7503C6.41788 11.7503 6.33656 11.7342 6.26069 11.7027C6.18482 11.6713 6.11588 11.6253 6.05781 11.5672C5.99974 11.5091 5.95368 11.4402 5.92225 11.3643C5.89083 11.2884 5.87465 11.2071 5.87465 11.125C5.87465 11.0429 5.89083 10.9616 5.92225 10.8857C5.95368 10.8098 5.99974 10.7409 6.05781 10.6828L8.11641 8.625H0.875C0.70924 8.625 0.550268 8.55915 0.433058 8.44194C0.315848 8.32473 0.25 8.16576 0.25 8C0.25 7.83424 0.315848 7.67527 0.433058 7.55806C0.550268 7.44085 0.70924 7.375 0.875 7.375H8.11641L6.05781 5.31719C5.94054 5.19991 5.87465 5.04085 5.87465 4.875C5.87465 4.70915 5.94054 4.55009 6.05781 4.43281C6.17509 4.31554 6.33415 4.24965 6.5 4.24965C6.66585 4.24965 6.82491 4.31554 6.94219 4.43281L10.0672 7.55781C10.1253 7.61586 10.1714 7.68479 10.2029 7.76066C10.2343 7.83654 10.2505 7.91787 10.2505 8C10.2505 8.08213 10.2343 8.16346 10.2029 8.23934C10.1714 8.31521 10.1253 8.38414 10.0672 8.44219ZM14 0.5H9.625C9.45924 0.5 9.30027 0.565848 9.18306 0.683058C9.06585 0.800269 9 0.95924 9 1.125C9 1.29076 9.06585 1.44973 9.18306 1.56694C9.30027 1.68415 9.45924 1.75 9.625 1.75H14V14.25H9.625C9.45924 14.25 9.30027 14.3158 9.18306 14.4331C9.06585 14.5503 9 14.7092 9 14.875C9 15.0408 9.06585 15.1997 9.18306 15.3169C9.30027 15.4342 9.45924 15.5 9.625 15.5H14C14.3315 15.5 14.6495 15.3683 14.8839 15.1339C15.1183 14.8995 15.25 14.5815 15.25 14.25V1.75C15.25 1.41848 15.1183 1.10054 14.8839 0.866116C14.6495 0.631696 14.3315 0.5 14 0.5Z" fill="#161616"/>
</svg>
