<svg width="40" height="40" viewBox="0 0 40 40" fill="none" xmlns="http://www.w3.org/2000/svg">
<path d="M34.6476 23.8034C36.9997 21.9121 38.3275 19.3648 38.3275 16.663C38.3275 11.1437 32.8645 6.6665 26.1877 6.6665C21.8629 6.6665 18.1072 8.51913 15.9449 11.3367C15.4516 11.2981 14.9206 11.2595 14.4273 11.2595C7.75048 11.2595 2.2876 15.7367 2.2876 21.256C2.2876 23.9578 3.61538 26.5437 5.96745 28.3963C5.77777 29.0525 5.47428 29.67 5.13285 30.2104C4.60174 31.0209 4.63967 32.063 5.24666 32.8349C5.58809 33.2981 6.11921 33.6455 6.68825 33.7227C6.80207 33.7227 6.91587 33.7613 7.02969 33.7613C7.25731 33.7613 7.48493 33.7227 7.71255 33.6455C9.19208 33.1823 10.7475 32.2946 12.3409 31.0595C13.0616 31.1753 13.7444 31.2139 14.4273 31.2139C18.7521 31.2139 22.5458 29.3613 24.6703 26.5437C25.1634 26.5823 25.6567 26.6209 26.1877 26.6209C26.8706 26.6209 27.5914 26.5823 28.2743 26.4665C29.8676 27.7402 31.423 28.5893 32.9025 29.0911C33.1302 29.1683 33.3578 29.2069 33.5854 29.2069C33.6992 29.2069 33.813 29.2069 33.9268 29.1683C34.4958 29.0911 35.027 28.7437 35.3684 28.2806C35.9375 27.5086 35.9754 26.4665 35.4822 25.656C35.1408 25.0771 34.8373 24.4595 34.6476 23.8034ZM14.4273 29.0911C13.7065 29.0911 12.9478 29.0139 12.227 28.8981C11.9235 28.8595 11.62 28.9367 11.3924 29.1297C9.87494 30.4034 8.39541 31.2525 7.10556 31.6385L6.91587 31.5613C6.87794 31.4841 6.87794 31.4069 6.91587 31.3683C7.52286 30.4034 7.9781 29.3613 8.20572 28.2034C8.2816 27.7788 8.12985 27.3542 7.78842 27.0841C5.58809 25.5788 4.37412 23.456 4.37412 21.2174C4.37412 16.8946 8.88858 13.3437 14.4273 13.3437C19.9661 13.3437 24.4806 16.856 24.4806 21.2174C24.4806 25.5788 19.9661 29.0911 14.4273 29.0911ZM32.8645 22.4911C32.5231 22.7227 32.3335 23.1858 32.4473 23.6104C32.7129 24.7683 33.1302 25.8104 33.7372 26.7753C33.7751 26.8525 33.7751 26.9297 33.7372 26.9683L33.5474 27.0455C32.2196 26.6209 30.7781 25.7718 29.2607 24.5367C29.0709 24.3823 28.8433 24.3051 28.6157 24.3051C28.5398 24.3051 28.5019 24.3051 28.426 24.3051C27.6672 24.4209 26.9465 24.4981 26.2257 24.4981C26.1118 24.4981 26.0359 24.4981 25.9222 24.4981C26.3395 23.456 26.6051 22.3753 26.6051 21.2174C26.6051 16.8174 23.1528 13.1121 18.3348 11.7613C20.1937 9.9472 23.0011 8.75071 26.2257 8.75071C31.7644 8.75071 36.2789 12.263 36.2789 16.6244C36.241 18.863 35.027 21.0244 32.8645 22.4911Z" fill="white"/>
<path d="M14.4654 15.7729C12.1513 15.7729 11.089 17.4711 10.8614 18.9378C10.8235 19.1308 10.8994 19.3239 11.0132 19.4783C11.127 19.6326 11.3167 19.7097 11.5064 19.7097H12.3409C12.6445 19.7097 12.948 19.4783 12.9858 19.1309C13.1376 18.3204 13.6308 17.9343 14.4654 17.9343C15.262 17.9343 15.6035 18.3589 15.7553 18.629C15.9449 19.015 15.907 19.4397 15.6794 19.7484C15.4518 20.0958 15.2242 20.2502 14.9586 20.4432C14.2757 20.9448 13.6687 21.4852 13.555 22.9518C13.555 23.1448 13.5929 23.3379 13.7446 23.4537C13.8585 23.6081 14.0481 23.6853 14.2378 23.6853H14.9965C15.3379 23.6853 15.6414 23.4151 15.6414 23.0677C15.6794 22.5274 15.7932 22.4502 16.1347 22.2186C16.4761 21.987 16.9313 21.6782 17.3486 21.022C18.0694 20.0571 18.1453 18.7449 17.6142 17.6642C17.0451 16.4677 15.8691 15.7729 14.4654 15.7729Z" fill="white"/>
<path d="M14.5751 26.9297C15.2666 26.9297 15.8271 26.3595 15.8271 25.656C15.8271 24.9526 15.2666 24.3823 14.5751 24.3823C13.8838 24.3823 13.3232 24.9526 13.3232 25.656C13.3232 26.3595 13.8838 26.9297 14.5751 26.9297Z" fill="white"/>
</svg>
