<svg width="40" height="40" viewBox="0 0 40 40" fill="none" xmlns="http://www.w3.org/2000/svg">
<path d="M35.311 11.3984V11.3671C35.296 11.0078 35.2886 10.625 35.2811 10.1953C35.2511 8.125 33.6714 6.40625 31.6873 6.28906C27.5395 6.04688 24.3351 4.64063 21.5949 1.85156L21.5724 1.82813C20.6815 0.976562 19.3338 0.976562 18.4354 1.82813L18.4129 1.85156C15.6727 4.64844 12.4682 6.05469 8.32046 6.29688C6.33641 6.41406 4.75666 8.125 4.72671 10.2031C4.71922 10.625 4.71173 11.0078 4.69676 11.375V11.4453C4.6144 15.8515 4.51707 21.3437 6.27651 26.3203C7.24233 29.0625 8.70978 31.4375 10.6339 33.3984C12.8201 35.625 15.6876 37.3984 19.1541 38.6562C19.2664 38.6953 19.3862 38.7343 19.506 38.7578C19.6707 38.789 19.8429 38.8125 20.0151 38.8125C20.1873 38.8125 20.352 38.7968 20.5242 38.7578C20.644 38.7343 20.7638 38.7031 20.8761 38.6562C24.3351 37.3906 27.2026 35.625 29.3888 33.3906C31.313 31.4296 32.7729 29.0546 33.7462 26.3125C35.4907 21.3125 35.3934 15.8203 35.311 11.3984ZM31.7846 25.5703C29.9204 30.8437 26.117 34.4609 20.1574 36.6328C20.1349 36.6406 20.1125 36.6484 20.09 36.6484C20.0301 36.664 19.9627 36.664 19.9028 36.6484C19.8804 36.6406 19.8579 36.6406 19.8354 36.6328C13.8683 34.4609 10.0649 30.8437 8.20067 25.5781C6.57599 20.9687 6.66584 15.914 6.74819 11.4531V11.4296C6.76317 11.0468 6.77814 10.6484 6.77814 10.2031C6.79311 9.28125 7.49689 8.51563 8.38784 8.46094C10.7388 8.32031 12.8126 7.85156 14.7069 7.00781C16.6011 6.17188 18.2931 4.98438 19.8579 3.39844C19.9402 3.32813 20.0376 3.32813 20.1199 3.39844C21.6922 4.99219 23.3768 6.17188 25.271 7.00781C27.1727 7.84375 29.2391 8.32031 31.59 8.46094C32.4809 8.51563 33.1847 9.27344 33.1997 10.2031C33.2072 10.6484 33.2147 11.0468 33.2371 11.4296C33.327 15.8906 33.4168 20.9531 31.7846 25.5703Z" fill="white"/>
<path d="M19.9997 10.1016C14.7588 10.1016 10.5137 14.5313 10.5137 20.0001C10.5137 25.4688 14.7588 29.8985 19.9997 29.8985C25.2405 29.8985 29.4857 25.4688 29.4857 20.0001C29.4857 14.5313 25.2405 10.1016 19.9997 10.1016ZM19.9997 27.7422C15.9043 27.7422 12.5876 24.2735 12.5876 20.0001C12.5876 15.7266 15.9043 12.2579 19.9997 12.2579C24.095 12.2579 27.4118 15.7188 27.4118 20.0001C27.4118 24.2735 24.095 27.7422 19.9997 27.7422Z" fill="white"/>
<path d="M18.3833 23.5781C17.979 23.1563 17.979 22.4766 18.3833 22.0625L23.3921 16.836C23.7964 16.4141 24.4478 16.4141 24.8446 16.836C25.2489 17.2578 25.2489 17.9375 24.8446 18.3516L19.8358 23.5781C19.439 24 18.7876 24 18.3833 23.5781Z" fill="white"/>
<path d="M16.2271 20.0313C16.5715 19.6719 17.1255 19.6719 17.4699 20.0313L19.5962 22.25C19.9406 22.6094 19.9406 23.1875 19.5962 23.5469C19.2518 23.9063 18.6978 23.9063 18.3534 23.5469L16.2271 21.3281C15.8826 20.9688 15.8826 20.3906 16.2271 20.0313Z" fill="white"/>
</svg>
