<svg width="22" height="21" viewBox="0 0 22 21" fill="none" xmlns="http://www.w3.org/2000/svg">
<path d="M21.4251 8.121C21.3343 7.84104 21.1631 7.594 20.9329 7.41063C20.7026 7.22726 20.4236 7.11566 20.1304 7.08975L14.5626 6.60974L12.3801 1.41974C12.2665 1.14742 12.0748 0.914795 11.8292 0.751174C11.5837 0.587552 11.2952 0.500244 11.0001 0.500244C10.705 0.500244 10.4165 0.587552 10.1709 0.751174C9.92538 0.914795 9.73372 1.14742 9.62008 1.41974L7.44415 6.60974L1.86977 7.09162C1.57522 7.11617 1.29448 7.22721 1.06282 7.41077C0.831155 7.59434 0.658886 7.84225 0.567643 8.12339C0.476401 8.40453 0.470252 8.70636 0.549968 8.99098C0.629685 9.27561 0.791713 9.53033 1.01571 9.72318L5.24477 13.4188L3.97727 18.9069C3.91025 19.1941 3.92937 19.4947 4.03225 19.7711C4.13513 20.0475 4.31721 20.2874 4.5557 20.4609C4.7942 20.6344 5.07855 20.7337 5.37318 20.7464C5.66782 20.7592 5.95968 20.6848 6.21227 20.5326L10.9935 17.6263L15.7851 20.5326C16.0377 20.6848 16.3295 20.7592 16.6242 20.7464C16.9188 20.7337 17.2032 20.6344 17.4417 20.4609C17.6802 20.2874 17.8622 20.0475 17.9651 19.7711C18.068 19.4947 18.0871 19.1941 18.0201 18.9069L16.7535 13.4132L20.9816 9.72318C21.2053 9.5296 21.3667 9.27421 21.4456 8.98914C21.5245 8.70406 21.5174 8.40202 21.4251 8.121ZM19.9982 8.58975L15.7701 12.2797C15.5643 12.4587 15.4112 12.6905 15.3273 12.95C15.2434 13.2095 15.2318 13.487 15.2938 13.7526L16.5641 19.2501L11.7763 16.3438C11.5427 16.2016 11.2745 16.1263 11.001 16.1263V2.00849L13.176 7.191C13.2817 7.44286 13.454 7.6611 13.6746 7.82219C13.8952 7.98327 14.1555 8.08108 14.4276 8.10506L20.0001 8.58693C20.0001 8.58693 20.0001 8.59256 20.0001 8.59349L19.9982 8.58975Z" fill="#FCD901"/>
</svg>
