<svg width="71" height="18" viewBox="0 0 71 18" fill="none" xmlns="http://www.w3.org/2000/svg">
<g clip-path="url(#clip0_109_1191)">
<path d="M17.6133 3.41366C17.6023 2.39508 17.2867 1.36857 16.392 0.797916C15.4973 0.22743 14.3629 0.252882 13.6776 1.09929C13.6221 1.1677 13.5032 1.28572 13.5381 1.38608C13.573 1.48659 13.7888 1.46259 13.8792 1.50734C13.95 1.54575 14.0079 1.60444 14.0458 1.67594C14.0835 1.74727 14.0995 1.82849 14.0917 1.9089C14.0917 2.10344 14.0837 3.96031 14.0774 6.52012L7.35127 6.4804C7.25284 5.22806 7.32703 3.96809 7.5719 2.73617C7.62575 2.46528 7.68758 2.19584 7.75738 1.92802C7.83352 1.63476 8.04454 1.27454 8.02242 0.971709C8.02161 0.929717 8.00777 0.889029 7.98272 0.855305C7.92236 0.780408 7.80814 0.793216 7.71459 0.817047C7.13341 0.971383 6.59731 1.2627 6.15053 1.6667C5.8222 1.9705 5.54528 2.32569 5.33035 2.71867C4.46738 4.27109 4.40067 6.47084 4.40067 6.47084C4.35625 7.89259 4.30077 10.7744 5.80788 13.7662C5.80788 13.7662 6.86593 15.8638 8.37613 16.3818C8.67436 16.4838 8.75523 16.4153 8.78224 16.3818C8.89954 16.2303 8.64736 15.9706 8.57284 15.8542C8.43585 15.6396 8.31658 15.4141 8.21587 15.18C8.01184 14.6947 7.8602 14.1885 7.76372 13.6706C7.4266 12.1077 7.26683 10.5116 7.28782 8.91266H14.079V14.933C14.0673 15.1283 14.1107 15.323 14.2041 15.4947C14.2977 15.6663 14.4373 15.808 14.6073 15.9037C14.8338 16.0062 15.0765 16.0683 15.3243 16.0869C15.7532 16.1547 16.1899 16.1547 16.6188 16.0869C16.8719 16.0472 17.1088 15.9368 17.3025 15.7682C17.6023 15.4892 17.607 15.1114 17.607 14.7305C17.607 11.702 17.6341 8.6832 17.6308 5.65783C17.6287 4.91193 17.6229 4.16377 17.6133 3.41366Z" fill="white"/>
<path d="M8.31124 17.1313C5.57149 16.3343 4.504 13.4095 3.91697 10.8799C3.79006 10.3284 3.66788 9.78648 3.59971 9.22231C3.38087 7.52152 3.39031 5.65184 3.93927 4.01172C3.52193 4.10574 3.33157 4.46759 3.08736 4.76085C2.19575 5.83196 2.12449 7.08316 2.08153 8.32643C2.00782 10.2139 2.41979 12.0889 3.27772 13.7696C3.63127 14.4366 4.06259 15.0589 4.56258 15.6235C5.06305 16.1795 5.63121 16.67 6.25371 17.0834C5.24788 16.8353 4.34065 16.286 3.6521 15.5087C3.37062 15.1478 3.11452 14.7674 2.88593 14.3706C2.45119 13.6119 1.90874 12.6651 1.63101 11.3979C1.5534 11.0425 1.50101 10.6807 1.36141 10.6663C1.16145 10.6457 0.933018 11.3661 0.885509 11.5222C0.760391 11.9139 0.69466 12.3222 0.69043 12.7337C0.701493 13.69 1.4138 15.5502 3.12071 16.8126C3.12071 16.8126 4.61188 17.9156 7.16272 18.0001C7.58038 18.0033 7.99023 17.8855 8.34296 17.6605C8.56342 17.501 8.71245 17.2524 8.31124 17.1313Z" fill="white"/>
<path d="M52.6745 3.05865C52.691 2.55722 52.6495 2.05548 52.5508 1.56361C52.5327 1.42225 52.4957 1.28396 52.4412 1.15233C52.3499 0.92974 52.1954 0.739094 51.9971 0.604052C51.8496 0.50662 51.6772 0.453934 51.5007 0.452637C51.3768 0.452637 51.2532 0.462201 51.1294 0.462201C50.958 0.462201 50.7883 0.462201 50.6171 0.462201C50.2838 0.462201 49.9508 0.462201 49.6175 0.470145C49.4697 0.470469 49.3234 0.500622 49.187 0.558659C49.0509 0.616697 48.9275 0.701485 48.8243 0.807995C48.5705 1.07419 48.3707 1.45354 48.0312 2.26639C47.9741 2.4003 47.9313 2.51508 47.8996 2.59321C47.7743 2.86897 45.9816 6.76932 45.3059 7.89943C45.2568 7.9839 45.1473 8.164 45.0077 8.15768C44.8681 8.15119 44.7602 7.9839 44.7111 7.89943C44.0352 6.76932 42.2428 2.86897 42.1158 2.59321C42.0857 2.51508 42.0428 2.4003 41.9857 2.26639C41.6526 1.45354 41.4512 1.07419 41.1925 0.807995C41.0893 0.701485 40.9662 0.616697 40.8299 0.558659C40.6937 0.500622 40.5474 0.470469 40.3993 0.470145C40.0663 0.457337 39.7331 0.470145 39.4001 0.462201H38.8877C38.7639 0.462201 38.6402 0.454096 38.5163 0.452637C38.3399 0.453934 38.1674 0.50662 38.0198 0.604052C37.8207 0.738122 37.666 0.929097 37.5756 1.15233C37.5211 1.28396 37.4843 1.42225 37.4663 1.56361C37.3679 2.05548 37.3259 2.55706 37.3409 3.05865L36.9507 15.1008C36.9554 15.1906 36.9731 15.2791 37.0031 15.3637C37.2076 15.9503 37.9547 16.2404 38.5227 16.2484C39.0905 16.2564 39.7918 15.9806 40.0345 15.4514C40.0658 15.3798 40.0897 15.3048 40.1058 15.2284C40.2757 14.4107 40.3739 7.82616 40.4105 4.95703C41.9729 8.17843 43.1976 10.5836 43.7624 11.6516C43.8782 11.8714 44.124 12.3098 44.5746 12.4581C44.8487 12.5515 45.146 12.5515 45.4202 12.4581C45.8707 12.3098 46.1165 11.8714 46.2307 11.6516C46.7971 10.5899 48.0202 8.18475 49.5844 4.95703C49.6208 7.82616 49.7192 14.4107 49.8889 15.2284C49.905 15.3048 49.9289 15.3798 49.9604 15.4514C50.2046 15.9854 50.8946 16.2596 51.4721 16.2484C52.0494 16.2372 52.7855 15.9503 52.9919 15.3637C53.0209 15.279 53.0385 15.1904 53.0442 15.1008C52.9289 11.0862 52.8057 7.07215 52.6745 3.05865Z" fill="white"/>
<path d="M33.8558 0.930109C33.5305 0.517204 32.9738 0.502937 32.4408 0.48705C31.9348 0.474243 31.2907 0.456736 30.8878 0.906118C30.713 1.10925 30.6063 1.36248 30.5833 1.6298C30.5737 4.59247 30.5647 7.55498 30.5563 10.5177C30.5642 10.9995 30.4628 11.4769 30.2596 11.9136C30.0565 12.3502 29.7571 12.7346 29.3839 13.0376C28.8817 13.4085 28.2904 13.6391 27.6707 13.7055C27.5723 13.7055 27.4707 13.7182 27.4707 13.7182H27.3121C27.3121 13.7182 27.2091 13.7182 27.1123 13.7055C26.4924 13.6391 25.9013 13.4085 25.3991 13.0376C25.0261 12.7344 24.7269 12.35 24.5242 11.9133C24.3213 11.4767 24.2201 10.9995 24.2282 10.5177L24.1998 1.6298C24.177 1.36264 24.0709 1.10941 23.8969 0.906118C23.4922 0.456736 22.8499 0.474243 22.3422 0.48705C21.8092 0.502937 21.2539 0.517204 20.9287 0.930109C20.7461 1.19128 20.672 1.51389 20.7225 1.82905V11.1312C20.7327 12.2547 21.1094 13.3438 21.7949 14.2314C22.7229 15.4539 24.0411 15.9991 24.4472 16.1442C25.0546 16.3618 25.6866 16.502 26.3286 16.5618C27.0394 16.6127 27.7531 16.6127 28.4639 16.5618C29.1059 16.502 29.738 16.3618 30.3452 16.1442C30.7513 15.9847 32.0697 15.4476 32.9961 14.2314C33.6823 13.3441 34.0598 12.255 34.0699 11.1312V1.82905C34.1181 1.51276 34.0413 1.19015 33.8558 0.930109Z" fill="white"/>
<path d="M70.5891 5.40802C70.1421 3.91185 69.2305 2.59872 67.9875 1.66071C66.577 0.583294 64.8541 0 63.0825 0C61.3107 0 59.5878 0.583294 58.1775 1.66071C56.9346 2.59921 56.0226 3.91218 55.5743 5.40802C54.2972 9.69566 56.2182 15.1659 60.8092 16.3742C62.3002 16.7164 63.8488 16.7164 65.3398 16.3742C69.9466 15.1659 71.866 9.69566 70.5891 5.40802ZM67.1767 10.1898C66.7008 12.2188 65.3542 14.4009 63.0825 14.4248C60.8108 14.4009 59.4687 12.2188 58.9881 10.1898C58.5249 8.2324 58.6104 5.92923 59.7004 4.18389C60.0483 3.59411 60.543 3.10565 61.1359 2.76619C61.7288 2.42688 62.3993 2.24854 63.0817 2.24854C63.7639 2.24854 64.4346 2.42688 65.0273 2.76619C65.6202 3.10565 66.1149 3.59411 66.463 4.18389C67.5544 5.93392 67.6385 8.23711 67.1767 10.1945V10.1898Z" fill="white"/>
</g>
<defs>
<clipPath id="clip0_109_1191">
<rect width="70.2857" height="18" fill="white" transform="translate(0.69043)"/>
</clipPath>
</defs>
</svg>
