<svg width="69" height="20" viewBox="0 0 69 20" fill="none" xmlns="http://www.w3.org/2000/svg">
<g clip-path="url(#clip0_109_1151)">
<mask id="mask0_109_1151" style="mask-type:luminance" maskUnits="userSpaceOnUse" x="0" y="0" width="69" height="20">
<path d="M68.7858 0H0.214355V20H68.7858V0Z" fill="white"/>
</mask>
<g mask="url(#mask0_109_1151)">
<path fill-rule="evenodd" clip-rule="evenodd" d="M68.4005 8.28504C68.8862 8.98009 68.9351 10.0755 68.4195 10.9245C67.9592 11.6827 65.2043 14.5923 64.3078 15.5273C63.5304 16.3394 62.4815 17.1527 61.4491 17.1527H39.833C36.9116 17.1527 36.7354 16.1622 36.7354 13.9228V4.83882C36.7354 2.5517 37.4103 1.89062 39.4053 1.89062H61.4491C62.4815 1.89062 63.4002 2.41761 64.4557 3.49062C65.3516 4.40116 68.0278 7.75031 68.4005 8.28504Z" fill="#33CCCC"/>
<path fill-rule="evenodd" clip-rule="evenodd" d="M68.4005 8.28504C68.8862 8.98009 68.9351 10.0755 68.4195 10.9245C67.9592 11.6827 65.2043 14.5923 64.3078 15.5273C63.5304 16.3394 62.4815 17.1527 61.4491 17.1527H39.833C36.9116 17.1527 36.7354 16.1622 36.7354 13.9228V4.83882C36.7354 2.5517 37.4103 1.89062 39.4053 1.89062H61.4491C62.4815 1.89062 63.4002 2.41761 64.4557 3.49062C65.3516 4.40116 68.0278 7.75031 68.4005 8.28504Z" fill="url(#paint0_linear_109_1151)"/>
<path fill-rule="evenodd" clip-rule="evenodd" d="M41.6357 5.40287V5.34306C41.6357 5.051 41.6112 4.76231 41.1327 4.76231H39.3261C38.9062 4.76231 38.8797 4.9945 38.8797 5.35525V7.75595C39.7591 6.49849 40.7342 5.91424 41.6357 5.40287ZM53.7546 14.0775V13.9486H53.7558V8.17055C53.7558 5.74744 52.6906 4.53602 50.5603 4.53627C49.9699 4.53072 49.3895 4.68937 48.8841 4.9945C48.377 5.30014 47.8897 5.72709 47.4224 6.27532C47.1927 5.67955 46.8462 5.24078 46.3831 4.959C45.92 4.67723 45.3198 4.53631 44.5828 4.53627C43.7297 4.53627 42.7379 4.83513 42.0349 5.41341C41.8777 5.57093 38.8794 7.93087 38.8794 10.3546V14.0539C38.8794 14.1715 38.8226 14.6179 39.3228 14.6179H41.2034C41.7881 14.6179 41.731 14.235 41.731 14.0775V8.09455C42.0485 7.67347 42.6971 6.63354 43.7506 6.63354C44.1549 6.63354 44.4462 6.77036 44.6242 7.04408C44.8022 7.31779 44.8916 7.77665 44.8924 8.42078V13.0938H44.8902V14.054C44.8902 14.1716 44.8334 14.618 45.3334 14.618H47.19C47.7751 14.618 47.718 14.2351 47.718 14.0777V13.9488H47.7201V8.09481C48.0603 7.67373 48.738 6.63379 49.7392 6.63379C50.1511 6.63379 50.4482 6.77062 50.6305 7.04433C50.8127 7.31804 50.9038 7.7769 50.9035 8.42103V13.094H50.9016V14.0542C50.9016 14.1719 50.8451 14.6182 51.3454 14.6182H53.2267C53.8117 14.618 53.7546 14.235 53.7546 14.0775ZM64.1123 11.7283C63.4434 13.5274 61.8415 14.5328 59.8568 14.5328C56.9819 14.5328 55.0828 12.5737 55.0828 9.63551C55.0828 6.73271 57.0542 4.62865 59.7673 4.62865C62.4511 4.62865 64.2513 6.49773 64.3656 9.50852C64.3802 9.89322 64.2678 10.2331 63.7872 10.2331H57.6866C57.7228 11.8476 58.5012 12.7184 59.8752 12.7184C60.7133 12.7184 61.2098 12.3571 61.6422 11.649C61.8301 11.3408 62.2155 11.358 62.2155 11.358H63.7872C64.0437 11.3578 64.1573 11.6085 64.1123 11.7281V11.7283ZM59.7673 6.49658C58.6269 6.49658 57.8314 7.29462 57.6866 8.60135H61.7742C61.6657 7.45836 61.0504 6.49658 59.7673 6.49658Z" fill="white"/>
<path fill-rule="evenodd" clip-rule="evenodd" d="M11.4424 1.97343C11.2008 1.58836 10.8873 1.25338 10.5191 0.986768C10.1509 0.728083 9.74661 0.525254 9.31912 0.384864C8.84432 0.230211 8.35391 0.128327 7.85683 0.0810546C7.28813 0.02513 6.71702 -0.00188852 6.14564 0.000102491H1.13802C0.687731 0.000102491 0.215731 0.29585 0.215731 0.853562V8.97359C0.850082 10.3269 2.08576 11.7637 3.49065 12.4503V10.8399C3.49065 9.99016 4.13059 9.80032 4.39529 9.80032H5.87592C7.91543 9.80032 9.47207 9.372 10.5458 8.51543C11.6196 7.66006 12.1565 6.38952 12.1565 4.70378C12.1595 4.2167 12.103 3.73107 11.9883 3.25769C11.8742 2.80383 11.69 2.37054 11.4424 1.97343ZM8.52432 6.14366C8.35143 6.44375 8.09353 6.6859 7.78324 6.83968C7.44693 7.00013 7.08362 7.09638 6.71201 7.12349C6.30729 7.15955 5.88936 7.17765 5.45821 7.17771H4.05116C3.70697 7.17771 3.49065 6.89752 3.49065 6.48419V3.16436C3.49065 2.79204 3.73338 2.63585 4.02443 2.63585H5.45821C5.92526 2.63585 6.36324 2.64933 6.7722 2.67629C7.14026 2.69308 7.50172 2.78035 7.83696 2.93337C8.13575 3.07561 8.38305 3.30705 8.54477 3.59578C8.71518 3.89272 8.80039 4.31176 8.80051 4.85293C8.80051 5.40239 8.70845 5.83263 8.52432 6.14366ZM3.49065 12.9751C1.94551 12.3577 0.909638 11.6212 0.215731 10.891V14.811C0.215731 14.811 0.158588 15.4503 0.78081 15.4503H2.96551C3.56481 15.4503 3.49091 14.811 3.49091 14.811V12.9751H3.49065ZM34.4521 4.27178H32.4914C32.093 4.27178 31.8304 4.43928 31.6724 4.8775C31.5144 5.31572 29.4361 11.1038 29.4361 11.1038C29.4361 11.1038 27.4481 5.43528 27.2917 4.99636C27.1352 4.55743 26.8784 4.27178 26.4155 4.27178H24.6139C23.9784 4.27178 23.9784 4.77102 24.0571 4.96899C24.1211 5.12899 26.5883 11.8913 27.5279 14.4674C27.7495 15.0757 27.837 15.2587 27.8439 15.484C27.8507 15.7093 27.6217 16.1824 27.4634 16.4539C27.3907 16.5778 27.3072 16.6951 27.2139 16.8044C29.0561 16.2528 31.1793 14.2514 32.2773 12.0832C33.363 9.06159 34.7947 5.07001 34.8568 4.86582C34.9567 4.53509 34.9557 4.27178 34.4521 4.27178ZM25.7944 17.3794C25.6242 17.3764 25.4543 17.3641 25.2855 17.3426C25.0788 17.3152 24.6921 17.3538 24.6921 17.6925V19.2064C24.6921 19.7842 24.9683 19.8227 25.1204 19.857C25.5779 19.9523 26.0445 19.9974 26.5119 19.9914C27.1313 19.9914 27.6702 19.8787 28.1288 19.6534C28.5918 19.4243 29.0043 19.1049 29.3422 18.714C29.7147 18.2789 30.0295 17.7974 30.2787 17.2817C30.5525 16.7275 30.8152 16.117 31.067 15.4502C31.067 15.4502 31.1749 15.1489 31.3527 14.6552C30.8119 15.2012 28.2628 17.6184 25.7944 17.3794ZM22.85 6.06893C22.7436 5.8159 22.5982 5.58107 22.4192 5.37299C22.2409 5.17324 22.0368 4.99816 21.8122 4.85236C21.5698 4.6948 21.3128 4.56124 21.0446 4.45356C20.7707 4.34661 20.489 4.26085 20.202 4.19705C19.8758 4.1256 19.5447 4.07817 19.2116 4.05515C18.8518 4.02836 18.4473 4.01485 17.9982 4.01464C15.0279 4.01464 13.3366 4.95342 12.9243 6.83098C12.7902 7.41359 13.3665 7.44781 13.3665 7.44781H15.1937C15.6707 7.44781 15.6502 7.29409 15.8817 6.86273C15.9651 6.628 16.1151 6.42267 16.3135 6.27191C16.6641 6.00177 17.1897 5.86669 17.8903 5.86664C18.5643 5.86664 19.054 5.99716 19.3594 6.2582C19.6647 6.51924 19.8444 6.91575 19.8985 7.44781C19.8985 8.06476 19.706 8.47638 18.9603 8.47638C17.142 8.41035 15.1882 8.61606 14.0878 9.24698C12.9873 9.8779 12.3652 11.1114 12.3652 12.436C12.3652 12.9763 12.4618 13.4494 12.6551 13.8553C12.8423 14.2532 13.1191 14.6025 13.4638 14.8756C13.8296 15.1609 14.2488 15.37 14.6968 15.4907C15.2059 15.6303 15.7319 15.6987 16.2599 15.6938C17.0507 15.6938 17.7493 15.5947 18.3559 15.3963C18.9623 15.1983 19.9007 14.5455 20.0202 14.4503V14.7983C20.0202 15.1431 20.1251 15.4507 20.5366 15.4507H22.6615C23.0916 15.4507 23.1872 15.1431 23.1872 14.7646V8.21854C23.1909 7.81162 23.1639 7.40501 23.1065 7.00216C23.0609 6.68146 22.9747 6.36787 22.85 6.06893ZM19.9525 12.4871C19.9525 12.4871 19.4038 13.6269 17.4456 13.6269C16.9068 13.6269 16.4688 13.5053 16.1316 13.2621C15.7944 13.0189 15.6258 12.6404 15.6261 12.1266C15.6261 11.4593 15.9002 10.9883 16.4485 10.7135C16.9963 10.439 18.093 10.2822 18.9147 10.3014C19.7365 10.3206 19.9525 10.8399 19.9525 11.1985V12.4874V12.4871Z" fill="white"/>
</g>
</g>
<defs>
<linearGradient id="paint0_linear_109_1151" x1="79.3757" y1="6.29729" x2="75.1789" y2="31.645" gradientUnits="userSpaceOnUse">
<stop offset="0.47231" stop-color="#00CCCC"/>
<stop offset="1" stop-color="#3399FF"/>
</linearGradient>
<clipPath id="clip0_109_1151">
<rect width="68.5714" height="20" fill="white" transform="translate(0.214355)"/>
</clipPath>
</defs>
</svg>
