<svg width="18" height="18" viewBox="0 0 18 18" fill="none" xmlns="http://www.w3.org/2000/svg">
  <path d="M16.9424 16.0579L13.0306 12.1469C14.1644 10.7858 14.7298 9.03989 14.6091 7.2725C14.4884 5.50512 13.691 3.85229 12.3828 2.65785C11.0745 1.46341 9.35615 0.819317 7.5851 0.859567C5.81406 0.899817 4.12671 1.62131 2.87407 2.87395C1.62143 4.12659 0.899939 5.81394 0.859689 7.58498C0.819439 9.35603 1.46353 11.0744 2.65797 12.3827C3.85241 13.6909 5.50524 14.4883 7.27263 14.609C9.04002 14.7297 10.7859 14.1643 12.1471 13.0305L16.058 16.9422C16.1161 17.0003 16.185 17.0464 16.2609 17.0778C16.3367 17.1092 16.4181 17.1254 16.5002 17.1254C16.5823 17.1254 16.6636 17.1092 16.7395 17.0778C16.8154 17.0464 16.8843 17.0003 16.9424 16.9422C17.0004 16.8842 17.0465 16.8152 17.0779 16.7394C17.1094 16.6635 17.1255 16.5822 17.1255 16.5001C17.1255 16.4179 17.1094 16.3366 17.0779 16.2607C17.0465 16.1849 17.0004 16.1159 16.9424 16.0579ZM2.12518 7.75006C2.12518 6.63754 2.45508 5.55 3.07316 4.62497C3.69124 3.69995 4.56975 2.97898 5.59758 2.55323C6.62542 2.12749 7.75642 2.0161 8.84756 2.23314C9.9387 2.45018 10.941 2.98591 11.7277 3.77258C12.5143 4.55925 13.0501 5.56153 13.2671 6.65267C13.4841 7.74382 13.3727 8.87482 12.947 9.90265C12.5213 10.9305 11.8003 11.809 10.8753 12.4271C9.95023 13.0452 8.8627 13.3751 7.75018 13.3751C6.25884 13.3734 4.82906 12.7802 3.77453 11.7257C2.72 10.6712 2.12683 9.24139 2.12518 7.75006Z" fill="#8E9AAC"/>
</svg>
