<svg width="56" height="19" viewBox="0 0 56 19" fill="none" xmlns="http://www.w3.org/2000/svg">
<path d="M24.291 18.2526H19.7502L22.5882 0.811644H27.1294L24.291 18.2526ZM15.9303 0.811644L11.6013 12.8076L11.089 10.2244L11.0895 10.2254L9.56158 2.382C9.56158 2.382 9.37684 0.811644 7.4076 0.811644H0.250968L0.166992 1.10696C0.166992 1.10696 2.3555 1.5623 4.91677 3.10046L8.86178 18.253H13.5929L20.8172 0.811644H15.9303ZM51.6458 18.2526H55.8152L52.1799 0.811178H48.5298C46.8442 0.811178 46.4336 2.11094 46.4336 2.11094L39.6614 18.2526H44.3949L45.3415 15.6619H51.1139L51.6458 18.2526ZM46.6492 12.0831L49.035 5.55629L50.3773 12.0831H46.6492ZM40.0165 5.00578L40.6645 1.26045C40.6645 1.26045 38.6649 0.5 36.5804 0.5C34.3271 0.5 28.9759 1.48485 28.9759 6.27382C28.9759 10.7796 35.2564 10.8356 35.2564 13.2023C35.2564 15.569 29.623 15.145 27.7639 13.6525L27.0888 17.5686C27.0888 17.5686 29.1164 18.5535 32.2142 18.5535C35.3129 18.5535 39.9875 16.9491 39.9875 12.5823C39.9875 8.04759 33.6506 7.62537 33.6506 5.6538C33.6511 3.68176 38.0734 3.93509 40.0165 5.00578Z" fill="white"/>
</svg>
